<?xml version="1.0" encoding="UTF-8"?>
<svg xmlns="http://www.w3.org/2000/svg" xmlns:xlink="http://www.w3.org/1999/xlink" width="100px" height="232px" viewBox="0 0 100 232" version="1.1">
<g id="surface1">
<path style=" stroke:none;fill-rule:nonzero;fill:rgb(0%,0%,0%);fill-opacity:1;" d="M 83.984375 82.140625 C 80.875 85.976562 77.277344 89.15625 73.285156 91.609375 C 72.617188 92.015625 72.210938 92.757812 72.210938 93.535156 L 72.210938 113.886719 L 64.691406 127.648438 C 64.335938 128.300781 64.320312 129.042969 64.621094 129.714844 L 71.960938 145.28125 L 64.636719 160.3125 C 64.320312 160.964844 64.335938 161.742188 64.671875 162.378906 L 71.890625 175.789062 L 64.691406 188.914062 C 64.335938 189.566406 64.320312 190.34375 64.636719 191.015625 L 71.714844 205.238281 L 49.792969 226.578125 L 27.375 204.761719 L 27.375 93.570312 C 27.375 92.707031 26.878906 91.929688 26.101562 91.539062 C 25.148438 91.082031 23.121094 89.472656 22.007812 88.535156 C 12.863281 81.136719 7.164062 70.625 5.960938 58.945312 C 4.746094 47.269531 8.167969 35.785156 15.601562 26.652344 C 30.90625 7.804688 58.6875 4.925781 77.574219 20.257812 C 86.703125 27.644531 92.402344 38.152344 93.621094 49.832031 C 94.839844 61.527344 91.414062 72.992188 83.984375 82.140625 Z M 98.121094 49.355469 C 96.78125 36.492188 90.496094 24.886719 80.417969 16.742188 C 59.605469 -0.164062 28.960938 3 12.105469 23.792969 C 3.898438 33.878906 0.121094 46.527344 1.460938 59.421875 C 2.800781 72.300781 9.085938 83.890625 19.128906 92.015625 C 19.378906 92.230469 21.214844 93.785156 22.855469 94.859375 L 22.855469 205.714844 C 22.855469 206.332031 23.101562 206.914062 23.542969 207.339844 L 48.222656 231.363281 C 48.660156 231.789062 49.226562 232 49.792969 232 C 50.355469 232 50.9375 231.789062 51.363281 231.363281 L 76.058594 207.339844 C 76.746094 206.648438 76.941406 205.589844 76.480469 204.707031 L 69.207031 190.0625 L 76.445312 176.902344 C 76.816406 176.210938 76.816406 175.398438 76.464844 174.726562 L 69.207031 161.25 L 76.5 146.269531 C 76.800781 145.667969 76.800781 144.945312 76.515625 144.324219 L 69.191406 128.816406 L 76.445312 115.546875 C 76.640625 115.210938 76.726562 114.839844 76.726562 114.46875 L 76.726562 94.773438 C 80.71875 92.160156 84.335938 88.871094 87.476562 84.984375 C 95.6875 74.917969 99.464844 62.269531 98.121094 49.355469 "/>
<path style=" stroke:none;fill-rule:nonzero;fill:rgb(0%,0%,0%);fill-opacity:1;" d="M 58.386719 47.269531 C 54.539062 51.988281 47.550781 52.710938 42.800781 48.878906 C 40.523438 47.003906 39.09375 44.371094 38.777344 41.441406 C 38.476562 38.507812 39.34375 35.628906 41.195312 33.332031 C 43.382812 30.644531 46.578125 29.25 49.808594 29.25 C 52.246094 29.25 54.714844 30.0625 56.765625 31.722656 C 59.058594 33.578125 60.488281 36.230469 60.804688 39.160156 C 61.105469 42.09375 60.242188 44.972656 58.386719 47.269531 Z M 59.605469 28.207031 C 52.953125 22.800781 43.101562 23.828125 37.699219 30.488281 C 35.070312 33.703125 33.851562 37.765625 34.292969 41.898438 C 34.71875 46.03125 36.730469 49.761719 39.960938 52.394531 C 42.855469 54.726562 46.3125 55.855469 49.773438 55.855469 C 54.3125 55.855469 58.8125 53.894531 61.882812 50.113281 C 64.511719 46.882812 65.714844 42.835938 65.289062 38.703125 C 64.867188 34.550781 62.855469 30.839844 59.605469 28.207031 "/>
</g>
</svg>
