<?xml version="1.0" encoding="UTF-8"?>
<svg xmlns="http://www.w3.org/2000/svg" xmlns:xlink="http://www.w3.org/1999/xlink" width="100px" height="111px" viewBox="0 0 100 110" version="1.1">
<g id="surface1">
<path style=" stroke:none;fill-rule:nonzero;fill:rgb(0%,0%,0%);fill-opacity:1;" d="M 50 57.621094 C 65.988281 57.621094 78.949219 44.71875 78.949219 28.808594 C 78.949219 12.898438 65.988281 0 50 0 C 34.011719 0 21.050781 12.898438 21.050781 28.808594 C 21.070312 44.710938 34.019531 57.601562 49.996094 57.621094 Z M 50 5.238281 C 63.082031 5.238281 73.683594 15.789062 73.683594 28.808594 C 73.683594 41.828125 63.082031 52.382812 50 52.382812 C 36.917969 52.382812 26.316406 41.828125 26.316406 28.808594 C 26.332031 15.796875 36.925781 5.253906 49.996094 5.238281 Z M 23.683594 73.332031 L 76.316406 73.332031 C 89.390625 73.347656 99.984375 83.894531 100 96.902344 L 100 107.378906 C 100 108.824219 98.820312 109.996094 97.367188 109.996094 C 95.914062 109.996094 94.738281 108.824219 94.738281 107.378906 L 94.738281 96.902344 C 94.738281 86.777344 86.488281 78.570312 76.316406 78.570312 L 23.683594 78.570312 C 13.511719 78.570312 5.261719 86.777344 5.261719 96.902344 L 5.261719 107.378906 C 5.261719 108.824219 4.085938 109.996094 2.632812 109.996094 C 1.179688 109.996094 0 108.824219 0 107.378906 L 0 96.902344 C 0.015625 83.890625 10.609375 73.347656 23.679688 73.332031 Z M 23.683594 73.332031 "/>
</g>
</svg>
